<svg id="Layer_1" data-name="Layer 1" xmlns="http://www.w3.org/2000/svg" viewBox="0 0 705.52 120.35"><defs><style>.cls-1{fill:#58595b;}.cls-2{fill:#6d6e70;}</style></defs><title>Artboard 1</title><path class="cls-1" d="M0,67.63V1.1H8.28V67.63Z"/><path class="cls-1" d="M35.81,67.63V1.1H62.54c13.37,0,20.85,9.17,20.85,20S75.81,41.2,62.54,41.2H44.09V67.63Zm39-46.48c0-7.48-5.39-12.67-13.27-12.67H44.09V33.81H61.54C69.42,33.81,74.81,28.63,74.81,21.15Z"/><path class="cls-1" d="M106.33,67.63V1.1h43.59V8.48H114.61V29.92h34.61v7.39H114.61V67.63Z"/><path shape-rendering="optimizeQuality" class="cls-1" d="M169.17,58.25l5-6.38A27.42,27.42,0,0,0,195,61.44c11.87,0,15.66-6.38,15.66-11.57,0-17.15-39.4-7.58-39.4-31.32,0-11,9.74-18.55,23-18.55,10.08,0,18,3.49,23.54,9.38l-5,6.08c-5-5.58-12-8-19.25-8-7.88,0-13.66,4.29-13.66,10.57,0,15,39.4,6.39,39.4,31.22,0,9.58-6.59,19.56-24.54,19.56C183.24,68.83,174.66,64.44,169.17,58.25Z"/><path class="cls-1" d="M277.4,58.25l5-6.38a27.45,27.45,0,0,0,20.85,9.57c11.87,0,15.66-6.38,15.66-11.57,0-17.15-39.4-7.58-39.4-31.32,0-11,9.77-18.55,22.94-18.55C312.51,0,320.39,3.49,326,9.38l-5,6.08c-5-5.58-12-8-19.25-8-7.88,0-13.67,4.29-13.67,10.57,0,15,39.4,6.39,39.4,31.22,0,9.58-6.58,19.56-24.53,19.56C291.47,68.83,282.89,64.44,277.4,58.25Z"/><path class="cls-1" d="M351.72,67.63V1.1H395.3V8.48H360V29.92h34.62v7.39H360V60.25h35.3v7.38Z"/><path class="cls-1" d="M467.92,67.63,462,52.77H428.92L423,67.63h-9.47L440.39,1.1h10.27L477.4,67.63Zm-22.44-58-14.07,35.9h28.23Z"/><path class="cls-1" d="M536.55,67.63,519.69,41.2H506.33V67.63h-8.28V1.1h26.73c12.17,0,20.94,7.78,20.94,20,0,12-8.27,18.55-17.35,19.35l18,27.13Zm.6-46.48c0-7.58-5.49-12.67-13.37-12.67H506.33V33.91h17.45c7.88,0,13.37-5.28,13.37-12.76Z"/><path class="cls-1" d="M568.07,34.41C568.07,14,583.13,0,602.28,0a29.55,29.55,0,0,1,25.24,13.17l-6.88,3.89a22.37,22.37,0,0,0-18.36-9.68c-14.56,0-25.63,11.07-25.63,27,0,15.76,11.07,27,25.63,27a22.68,22.68,0,0,0,18.36-9.67l7,3.79c-5.59,7.68-13.57,13.27-25.34,13.27C583.13,68.83,568.07,54.86,568.07,34.41Z"/><path class="cls-1" d="M697.24,67.63V37.11h-38.9V67.63h-8.28V1.1h8.28V29.72h38.9V1.1h8.28V67.63Z"/><path class="cls-2" d="M101.2,110.63l1.68-2.15a9.23,9.23,0,0,0,7,3.22c4,0,5.27-2.14,5.27-3.89,0-5.77-13.25-2.55-13.25-10.53,0-3.69,3.29-6.24,7.71-6.24a10.54,10.54,0,0,1,7.92,3.15l-1.68,2a8.43,8.43,0,0,0-6.47-2.68c-2.65,0-4.6,1.44-4.6,3.55,0,5,13.25,2.15,13.25,10.5,0,3.22-2.21,6.57-8.25,6.57A11.16,11.16,0,0,1,101.2,110.63Z"/><path class="cls-2" d="M121.16,105.66c0-4.69,3.35-8.48,8-8.48,4.9,0,7.78,3.82,7.78,8.69v.63h-13.1a5.68,5.68,0,0,0,5.76,5.6h.05a7,7,0,0,0,5-2.08l1.2,1.65a8.92,8.92,0,0,1-6.44,2.51C124.61,114.18,121.16,110.73,121.16,105.66Zm8-6.4a5.39,5.39,0,0,0-5.3,5.36h10.63a5.23,5.23,0,0,0-5.1-5.36h-.23Z"/><path class="cls-2" d="M151.11,113.78v-1.84a7,7,0,0,1-5.37,2.24,5.37,5.37,0,0,1-5.62-5.12,1.93,1.93,0,0,1,0-.24c0-3.66,2.88-5.34,5.63-5.34a6.89,6.89,0,0,1,5.37,2.18v-2.91c0-2.15-1.74-3.39-4.09-3.39a6.33,6.33,0,0,0-5,2.25l-1.17-1.75a8.5,8.5,0,0,1,6.47-2.68c3.46,0,6.27,1.54,6.27,5.47v11.13Zm0-3.42v-3.09a5.49,5.49,0,0,0-4.43-2c-2.38,0-4,1.47-4,3.52s1.64,3.55,4,3.55A5.4,5.4,0,0,0,151.11,110.36Z"/><path class="cls-2" d="M158.69,113.78V97.58h2.51v2.58a7,7,0,0,1,5.4-3V99.8a6.73,6.73,0,0,0-1-.07,5.94,5.94,0,0,0-4.43,2.58v11.47Z"/><path class="cls-2" d="M168.82,105.66c0-4.79,3.25-8.48,8.08-8.48a6.92,6.92,0,0,1,5.94,2.82l-1.68,1.51A4.76,4.76,0,0,0,177,99.43c-3.42,0-5.6,2.65-5.6,6.23s2.18,6.28,5.6,6.28a4.86,4.86,0,0,0,4.13-2.12l1.68,1.55a6.94,6.94,0,0,1-5.94,2.81C172.07,114.18,168.82,110.46,168.82,105.66Z"/><path class="cls-2" d="M197.36,113.78V103.12c0-2.89-1.44-3.69-3.66-3.69a6.25,6.25,0,0,0-4.76,2.51v11.84h-2.52V91.41h2.52v8.52a7.79,7.79,0,0,1,5.77-2.75c3.39,0,5.16,1.64,5.16,5.16v11.44Z"/><path class="cls-2" d="M204.47,93.59a1.73,1.73,0,0,1,1.71-1.71,1.69,1.69,0,0,1,1.68,1.7h0a1.66,1.66,0,0,1-1.64,1.68h0a1.69,1.69,0,0,1-1.71-1.67Zm.43,20.19V97.58h2.52v16.2Z"/><path class="cls-2" d="M223.42,113.78v-10.6c0-2.88-1.48-3.75-3.66-3.75a6.28,6.28,0,0,0-4.79,2.51v11.84h-2.52V97.58H215v2.35a7.87,7.87,0,0,1,5.8-2.75c3.35,0,5.13,1.71,5.13,5.23v11.37Z"/><path class="cls-2" d="M230.93,117.91l1.27-1.81a6.3,6.3,0,0,0,5.27,2.17c2.68,0,5.23-1.3,5.23-4.72V111.1a6.88,6.88,0,0,1-5.47,2.88c-4.22,0-7.21-3.15-7.21-8.38s3-8.42,7.21-8.42A6.77,6.77,0,0,1,242.7,100V97.58h2.52v16c0,5.13-3.79,6.8-7.75,6.8A8.28,8.28,0,0,1,230.93,117.91Zm11.77-8.79V102a6.11,6.11,0,0,0-4.83-2.58c-3.28,0-5.23,2.58-5.23,6.17s2,6.13,5.23,6.13A6,6,0,0,0,242.7,109.12Z"/><path class="cls-2" d="M259.44,110.39V99.8h-2.69V97.58h2.69V93.15H262v4.43h3.28V99.8H262v10.06c0,1.2.53,2.08,1.61,2.08a2.39,2.39,0,0,0,1.71-.71l.73,1.91a4,4,0,0,1-3,1C260.64,114.18,259.44,112.81,259.44,110.39Z"/><path class="cls-2" d="M279.76,113.78V103.12c0-2.89-1.44-3.69-3.66-3.69a6.25,6.25,0,0,0-4.76,2.51v11.84h-2.51V91.41h2.51v8.52a7.79,7.79,0,0,1,5.77-2.75c3.39,0,5.17,1.64,5.17,5.16v11.44Z"/><path class="cls-2" d="M286.37,105.66c0-4.69,3.35-8.48,8-8.48,4.9,0,7.78,3.82,7.78,8.69v.63h-13.1a5.68,5.68,0,0,0,5.76,5.6h0a7,7,0,0,0,5-2.08l1.21,1.65a8.92,8.92,0,0,1-6.44,2.51C289.82,114.18,286.37,110.73,286.37,105.66Zm7.95-6.4a5.39,5.39,0,0,0-5.3,5.36h10.63a5.23,5.23,0,0,0-5.1-5.36Z"/><path class="cls-2" d="M315,105.09V91.41h2.81V105c0,4.09,2.18,6.67,6.31,6.67s6.34-2.58,6.34-6.67V91.41h2.81v13.65c0,5.57-3.08,9.12-9.15,9.12S315,110.59,315,105.09Z"/><path class="cls-2" d="M349.35,113.78v-10.6c0-2.88-1.47-3.75-3.65-3.75a6.28,6.28,0,0,0-4.8,2.51v11.84h-2.51V97.58h2.51v2.35a7.87,7.87,0,0,1,5.8-2.75c3.36,0,5.13,1.71,5.13,5.23v11.37Z"/><path class="cls-2" d="M356.46,93.59a1.73,1.73,0,0,1,1.71-1.71,1.69,1.69,0,0,1,1.68,1.7h0a1.66,1.66,0,0,1-1.64,1.68h0a1.69,1.69,0,0,1-1.71-1.67Zm.44,20.19V97.58h2.51v16.2Z"/><path class="cls-2" d="M368.77,113.78,362,97.58h2.75l5.37,13.28,5.4-13.28h2.71l-6.74,16.2Z"/><path class="cls-2" d="M379.94,105.66c0-4.69,3.35-8.48,8-8.48,4.9,0,7.78,3.82,7.78,8.69v.63h-13.1a5.68,5.68,0,0,0,5.76,5.6h0a7,7,0,0,0,5-2.08l1.21,1.65a8.92,8.92,0,0,1-6.44,2.51C383.39,114.18,379.94,110.73,379.94,105.66Zm7.95-6.4a5.39,5.39,0,0,0-5.3,5.36h10.63a5.23,5.23,0,0,0-5.1-5.36Z"/><path class="cls-2" d="M399.76,113.78V97.58h2.51v2.58a7,7,0,0,1,5.4-3V99.8a6.73,6.73,0,0,0-1-.07,5.94,5.94,0,0,0-4.43,2.58v11.47Z"/><path class="cls-2" d="M409.45,111.63l1.28-1.81a7.36,7.36,0,0,0,5.33,2.32c2.48,0,3.86-1.18,3.86-2.79,0-3.92-10-1.51-10-7.51,0-2.55,2.14-4.66,6-4.66a8.1,8.1,0,0,1,6,2.35l-1.17,1.74a6.26,6.26,0,0,0-4.83-2c-2.21,0-3.59,1.1-3.59,2.54,0,3.53,10,1.21,10,7.52,0,2.71-2.18,4.89-6.34,4.89A8.67,8.67,0,0,1,409.45,111.63Z"/><path class="cls-2" d="M425.48,105.66c0-4.69,3.36-8.48,8-8.48,4.89,0,7.78,3.82,7.78,8.69v.63H428.17a5.67,5.67,0,0,0,5.74,5.6H434a7,7,0,0,0,5-2.08l1.21,1.65a9,9,0,0,1-6.44,2.51C428.94,114.18,425.48,110.73,425.48,105.66Zm7.95-6.4a5.41,5.41,0,0,0-5.3,5.36h10.63a5.23,5.23,0,0,0-5.1-5.36Z"/><path class="cls-2" d="M452.61,111.63l1.28-1.81a7.36,7.36,0,0,0,5.33,2.32c2.48,0,3.86-1.18,3.86-2.79,0-3.92-10-1.51-10-7.51,0-2.55,2.15-4.66,6-4.66a8.1,8.1,0,0,1,6,2.35l-1.18,1.74a6.26,6.26,0,0,0-4.83-2c-2.21,0-3.58,1.1-3.58,2.54,0,3.53,10,1.21,10,7.52,0,2.71-2.18,4.89-6.34,4.89A8.67,8.67,0,0,1,452.61,111.63Z"/><path class="cls-2" d="M469.15,93.59a1.73,1.73,0,0,1,1.71-1.71,1.69,1.69,0,0,1,1.68,1.7h0a1.66,1.66,0,0,1-1.64,1.68h0a1.69,1.69,0,0,1-1.71-1.67Zm.44,20.19V97.58h2.51v16.2Z"/><path class="cls-2" d="M488.1,113.78v-10.6c0-2.88-1.48-3.75-3.66-3.75a6.28,6.28,0,0,0-4.79,2.51v11.84h-2.52V97.58h2.52v2.35a7.87,7.87,0,0,1,5.8-2.75c3.35,0,5.13,1.71,5.13,5.23v11.37Z"/><path class="cls-2" d="M494.71,105.66c0-4.79,3.25-8.48,8.08-8.48a6.91,6.91,0,0,1,5.93,2.82l-1.67,1.51a4.79,4.79,0,0,0-4.13-2.08c-3.42,0-5.6,2.65-5.6,6.23s2.18,6.28,5.6,6.28a4.86,4.86,0,0,0,4.13-2.12l1.67,1.55a6.93,6.93,0,0,1-5.93,2.81C498,114.18,494.71,110.46,494.71,105.66Z"/><path class="cls-2" d="M511.34,105.66c0-4.69,3.35-8.48,8-8.48,4.9,0,7.78,3.82,7.78,8.69v.63H514a5.68,5.68,0,0,0,5.76,5.6h0a7,7,0,0,0,5-2.08l1.2,1.65a8.92,8.92,0,0,1-6.44,2.51C514.79,114.18,511.34,110.73,511.34,105.66Zm7.95-6.4a5.39,5.39,0,0,0-5.3,5.36h10.63a5.23,5.23,0,0,0-5.1-5.36Z"/><path class="cls-2" d="M539.14,113.78v-2.25c8.05-6.3,12.45-10,12.45-13.88,0-2.89-2.38-4.09-4.7-4.09a7.49,7.49,0,0,0-6.07,2.81l-1.71-1.77a9.59,9.59,0,0,1,7.78-3.53c3.72,0,7.51,2.12,7.51,6.58s-4.62,8.72-10.86,13.65h11v2.48Z"/><path class="cls-2" d="M558.76,102.61c0-5.46,2.42-11.54,8.56-11.54s8.55,6.08,8.55,11.54-2.45,11.57-8.55,11.57S558.76,108.05,558.76,102.61Zm14.26,0c0-4.46-1.44-9-5.7-9s-5.71,4.59-5.71,9,1.45,9.09,5.71,9.09,5.68-4.63,5.68-9.09Z"/><path class="cls-2" d="M583.55,113.78V95.07L580,98.89l-1.68-1.71,5.6-5.77h2.45v22.37Z"/><path class="cls-2" d="M590.66,102.61c0-6,2.81-11.54,9.12-11.54A7.64,7.64,0,0,1,606,93.76l-1.41,2.08a5.73,5.73,0,0,0-4.76-2.28c-4.36,0-6.31,4.39-6.31,8.78v.88a8,8,0,0,1,6.34-3.49c4,0,7.31,2.38,7.31,7.14,0,3.86-3,7.31-7.81,7.31C593,114.18,590.66,108.72,590.66,102.61ZM604.31,107c0-3.28-2.28-4.83-5.13-4.83a6.83,6.83,0,0,0-5.6,3.32c.23,2.79,1.71,6.24,5.6,6.24a4.85,4.85,0,0,0,5.12-4.56A1,1,0,0,0,604.31,107Z"/></svg>
