<?xml version="1.0" encoding="utf-8"?>
<!-- Generator: Adobe Illustrator 21.0.0, SVG Export Plug-In . SVG Version: 6.00 Build 0)  -->
<svg version="1.1" id="Laag_1" xmlns="http://www.w3.org/2000/svg" xmlns:xlink="http://www.w3.org/1999/xlink" x="0px" y="0px"
	 viewBox="0 0 1619.1 370.5" style="enable-background:new 0 0 1619.1 370.5;" xml:space="preserve">
<style type="text/css">
	.st0{enable-background:new    ;}
</style>
<title>Middel 1</title>
<g id="Laag_2">
	<g id="Laag_1-2">
		<g class="st0">
			<path d="M32,187.5V37.5h18.7v150.1H32z"/>
			<path d="M108.2,187.5V37.5h60.3c30.2,0,47,20.7,47,45.2c0,24.5-17.1,45.2-47,45.2h-41.6v59.6H108.2z M196.2,82.7
				c0-16.9-12.2-28.6-29.9-28.6h-39.4v57.2h39.4C184.1,111.3,196.2,99.6,196.2,82.7z"/>
			<path d="M262.8,187.5V37.5h98.3v16.7h-79.7v48.4h78.1v16.7h-78.1v68.4H262.8z"/>
			<path d="M400.3,166.4l11.3-14.4c9.7,11.2,25.9,21.6,47,21.6c26.8,0,35.3-14.4,35.3-26.1c0-38.7-88.9-17.1-88.9-70.7
				c0-24.8,22.1-41.9,51.8-41.9c22.7,0,40.5,7.9,53.1,21.2l-11.3,13.7c-11.3-12.6-27-18-43.4-18c-17.8,0-30.8,9.7-30.8,23.9
				c0,33.8,88.9,14.4,88.9,70.4c0,21.6-14.9,44.1-55.4,44.1C432,190.2,412.7,180.3,400.3,166.4z"/>
			<path d="M635.4,166.4l11.3-14.4c9.7,11.2,25.9,21.6,47,21.6c26.8,0,35.3-14.4,35.3-26.1c0-38.7-88.9-17.1-88.9-70.7
				c0-24.8,22.1-41.9,51.8-41.9c22.7,0,40.5,7.9,53.1,21.2l-11.2,13.7c-11.2-12.6-27-18-43.4-18c-17.8,0-30.8,9.7-30.8,23.9
				c0,33.8,88.9,14.4,88.9,70.4c0,21.6-14.8,44.1-55.4,44.1C667.1,190.2,647.8,180.3,635.4,166.4z"/>
			<path d="M798.8,187.5V37.5h98.3v16.7h-79.7v48.4h78.1v16.7h-78.1v51.8h79.7v16.7H798.8z"/>
			<path d="M1056.4,187.5l-13.3-33.5h-74.7l-13.3,33.5h-21.4l60.5-150.1h23.2l60.3,150.1H1056.4z M1005.8,56.6l-31.7,81h63.7
				L1005.8,56.6z"/>
			<path d="M1206.7,187.5l-38-59.6h-30.2v59.6h-18.7V37.5h60.3c27.5,0,47.3,17.6,47.3,45.2c0,27-18.7,41.9-39.2,43.7l40.5,61.2
				H1206.7z M1208,82.7c0-17.1-12.4-28.6-30.2-28.6h-39.4v57.4h39.4C1195.7,111.5,1208,99.6,1208,82.7z"/>
			<path d="M1273.3,112.6c0-46.1,34-77.6,77.2-77.6c26.6,0,45,12.6,56.9,29.7l-15.5,8.8c-8.6-12.8-24.3-21.8-41.4-21.8
				c-32.9,0-57.8,25-57.8,61c0,35.6,25,61,57.8,61c17.1,0,32.9-9.2,41.4-21.8l15.8,8.6c-12.6,17.3-30.6,29.9-57.2,29.9
				C1307.2,190.2,1273.3,158.7,1273.3,112.6z"/>
			<path d="M1560.4,187.5v-68.9h-87.8v68.9h-18.7V37.5h18.7V102h87.8V37.5h18.7v150.1H1560.4z"/>
		</g>
		<g class="st0">
			<path d="M26.6,297l5-6.3c4.3,5,11.4,9.5,20.7,9.5c11.8,0,15.5-6.3,15.5-11.5c0-17-39.1-7.5-39.1-31.1c0-10.9,9.7-18.4,22.8-18.4
				c10,0,17.8,3.5,23.4,9.3l-5,6c-4.9-5.5-11.9-7.9-19.1-7.9c-7.8,0-13.6,4.3-13.6,10.5c0,14.8,39.1,6.3,39.1,31
				c0,9.5-6.5,19.4-24.4,19.4C40.5,307.5,32,303.2,26.6,297z"/>
			<path d="M87.4,282.4c0-13.9,9.9-25,23.6-25c14.5,0,23,11.3,23,25.6v1.9H95.3c0.6,9,6.8,16.5,17.1,16.5c5.5,0,11-2.2,14.8-6.1
				l3.6,4.9c-4.9,4.8-11.3,7.4-19,7.4C97.6,307.5,87.4,297.3,87.4,282.4z M110.8,263.5c-10.2,0-15.2,8.6-15.6,15.8h31.4
				C126.5,272.3,121.7,263.5,110.8,263.5z"/>
			<path d="M177.7,306.3v-5.4c-3.9,4.4-9.4,6.6-15.8,6.6c-8,0-16.6-5.4-16.6-15.8c0-10.8,8.5-15.7,16.6-15.7c6.5,0,12,2.1,15.8,6.4
				v-8.6c0-6.3-5.1-10-12.1-10c-5.7,0-10.4,2-14.7,6.6l-3.5-5.1c5.1-5.3,11.3-7.9,19.1-7.9c10.2,0,18.5,4.6,18.5,16.1v32.9H177.7z
				 M177.7,296.2v-9.1c-2.9-3.9-7.9-5.8-13.1-5.8c-7,0-11.9,4.4-11.9,10.4c0,6.1,4.9,10.5,11.9,10.5
				C169.7,302.2,174.8,300.2,177.7,296.2z"/>
			<path d="M201.9,306.3v-47.8h7.4v7.6c3.9-5,9.4-8.7,15.9-8.7v7.6c-0.9-0.1-1.8-0.2-2.9-0.2c-4.7,0-10.9,3.8-13.1,7.6v33.9H201.9z"
				/>
			<path d="M233.7,282.4c0-14.2,9.6-25,23.9-25c8.7,0,13.9,3.6,17.5,8.3l-5,4.5c-3.2-4.4-7.2-6.1-12.2-6.1
				c-10.1,0-16.5,7.8-16.5,18.4s6.4,18.5,16.5,18.5c5,0,9-2,12.2-6.2l5,4.6c-3.7,4.8-8.8,8.3-17.5,8.3
				C243.3,307.5,233.7,296.5,233.7,282.4z"/>
			<path d="M319.8,306.3v-31.5c0-8.5-4.3-10.9-10.8-10.9c-5.7,0-11.3,3.6-14.1,7.4v34.9h-7.4v-66h7.4v25.1c3.3-4.1,9.8-8.1,17-8.1
				c10,0,15.2,4.9,15.2,15.2v33.8H319.8z"/>
			<path d="M342.7,246.7c0-2.8,2.3-5,5-5s4.9,2.3,4.9,5c0,2.8-2.2,5-4.9,5S342.7,249.5,342.7,246.7z M344,306.3v-47.8h7.4v47.8H344z
				"/>
			<path d="M400.5,306.3v-31.3c0-8.5-4.4-11.1-10.8-11.1c-5.8,0-11.3,3.6-14.2,7.4v34.9h-7.4v-47.8h7.4v6.9
				c3.4-4.1,9.9-8.1,17.1-8.1c9.9,0,15.1,5,15.1,15.4v33.6H400.5z"/>
			<path d="M424.6,318.5l3.8-5.3c4,4.7,8.7,6.4,15.5,6.4c7.9,0,15.4-3.9,15.4-14v-7.2c-3.6,4.9-9.4,8.5-16.1,8.5
				c-12.5,0-21.3-9.3-21.3-24.8c0-15.3,8.7-24.8,21.3-24.8c6.4,0,12.3,3.2,16.1,8.4v-7.2h7.4v47.1c0,15.1-11.2,20.1-22.9,20.1
				C435.8,325.7,430.3,324.2,424.6,318.5z M459.3,292.6v-21c-2.7-4.1-8.4-7.6-14.3-7.6c-9.7,0-15.4,7.6-15.4,18.2
				c0,10.5,5.7,18.1,15.4,18.1C450.9,300.3,456.6,296.7,459.3,292.6z"/>
			<path d="M512.5,296.3v-31.3h-7.9v-6.5h7.9v-13.1h7.5v13.1h9.7v6.5H520v29.7c0,3.6,1.6,6.1,4.8,6.1c2.2,0,4.1-1,5-2.1l2.2,5.6
				c-1.9,1.8-4.6,3.1-8.8,3.1C516,307.5,512.5,303.5,512.5,296.3z"/>
			<path d="M574.3,306.3v-31.5c0-8.5-4.3-10.9-10.8-10.9c-5.7,0-11.3,3.6-14.1,7.4v34.9h-7.4v-66h7.4v25.1c3.3-4.1,9.8-8.1,17-8.1
				c10,0,15.2,4.9,15.2,15.2v33.8H574.3z"/>
			<path d="M595.7,282.4c0-13.9,9.9-25,23.6-25c14.5,0,23,11.3,23,25.6v1.9h-38.6c0.6,9,6.8,16.5,17.1,16.5c5.5,0,11-2.2,14.9-6.1
				l3.6,4.9c-4.9,4.8-11.3,7.4-19,7.4C605.9,307.5,595.7,297.3,595.7,282.4z M619.2,263.5c-10.2,0-15.2,8.6-15.6,15.8h31.4
				C634.8,272.3,630.1,263.5,619.2,263.5z"/>
			<path d="M683.9,280.7v-40.4h8.3v40.2c0,12.1,6.4,19.7,18.6,19.7c12.2,0,18.7-7.6,18.7-19.7v-40.2h8.3v40.3
				c0,16.4-9.1,26.9-27,26.9C693,307.5,683.9,296.9,683.9,280.7z"/>
			<path d="M787.3,306.3v-31.3c0-8.5-4.4-11.1-10.8-11.1c-5.8,0-11.3,3.6-14.2,7.4v34.9h-7.4v-47.8h7.4v6.9
				c3.4-4.1,9.9-8.1,17.1-8.1c9.9,0,15.1,5,15.1,15.4v33.6H787.3z"/>
			<path d="M810.2,246.7c0-2.8,2.3-5,5-5c2.8,0,5,2.3,5,5c0,2.8-2.2,5-5,5C812.4,251.7,810.2,249.5,810.2,246.7z M811.4,306.3v-47.8
				h7.4v47.8H811.4z"/>
			<path d="M848.4,306.3l-19.9-47.8h8.1l15.8,39.2l15.9-39.2h8l-19.9,47.8H848.4z"/>
			<path d="M883.2,282.4c0-13.9,9.9-25,23.6-25c14.5,0,23,11.3,23,25.6v1.9h-38.6c0.6,9,6.8,16.5,17.1,16.5c5.5,0,11-2.2,14.9-6.1
				l3.6,4.9c-4.9,4.8-11.3,7.4-19,7.4C893.4,307.5,883.2,297.3,883.2,282.4z M906.7,263.5c-10.2,0-15.2,8.6-15.6,15.8h31.4
				C922.3,272.3,917.6,263.5,906.7,263.5z"/>
			<path d="M943.6,306.3v-47.8h7.4v7.6c3.9-5,9.4-8.7,15.9-8.7v7.6c-0.9-0.1-1.8-0.2-2.9-0.2c-4.7,0-10.9,3.8-13.1,7.6v33.9H943.6z"
				/>
			<path d="M974.1,300l3.8-5.3c3.2,3.7,9.2,6.8,15.7,6.8c7.3,0,11.4-3.5,11.4-8.2c0-11.6-29.6-4.5-29.6-22.2
				c0-7.5,6.3-13.8,17.7-13.8c8.2,0,14,3.1,17.7,6.9l-3.5,5.1c-2.9-3.5-8-6-14.3-6c-6.5,0-10.6,3.3-10.6,7.5
				c0,10.4,29.6,3.6,29.6,22.2c0,8-6.4,14.5-18.7,14.5C985.5,307.5,978.9,305.1,974.1,300z"/>
			<path d="M1023.3,282.4c0-13.9,9.9-25,23.6-25c14.5,0,23,11.3,23,25.6v1.9h-38.6c0.6,9,6.8,16.5,17.1,16.5c5.5,0,11-2.2,14.9-6.1
				l3.6,4.9c-4.9,4.8-11.3,7.4-19,7.4C1033.5,307.5,1023.3,297.3,1023.3,282.4z M1046.8,263.5c-10.2,0-15.2,8.6-15.6,15.8h31.4
				C1062.4,272.3,1057.6,263.5,1046.8,263.5z"/>
			<path d="M1107.1,300l3.8-5.3c3.2,3.7,9.2,6.8,15.7,6.8c7.3,0,11.4-3.5,11.4-8.2c0-11.6-29.6-4.5-29.6-22.2
				c0-7.5,6.3-13.8,17.7-13.8c8.2,0,14,3.1,17.7,6.9l-3.5,5.1c-2.9-3.5-8-6-14.3-6c-6.5,0-10.6,3.3-10.6,7.5
				c0,10.4,29.6,3.6,29.6,22.2c0,8-6.4,14.5-18.7,14.5C1118.5,307.5,1112,305.1,1107.1,300z"/>
			<path d="M1157.8,246.7c0-2.8,2.3-5,5-5c2.8,0,5,2.3,5,5c0,2.8-2.2,5-5,5C1160.1,251.7,1157.8,249.5,1157.8,246.7z M1159.1,306.3
				v-47.8h7.4v47.8H1159.1z"/>
			<path d="M1215.6,306.3v-31.3c0-8.5-4.4-11.1-10.8-11.1c-5.8,0-11.3,3.6-14.2,7.4v34.9h-7.4v-47.8h7.4v6.9
				c3.4-4.1,9.9-8.1,17.1-8.1c9.9,0,15.1,5,15.1,15.4v33.6H1215.6z"/>
			<path d="M1237,282.4c0-14.2,9.6-25,23.9-25c8.7,0,13.9,3.6,17.5,8.3l-4.9,4.5c-3.2-4.4-7.2-6.1-12.2-6.1
				c-10.1,0-16.5,7.8-16.5,18.4s6.4,18.5,16.5,18.5c4.9,0,9-2,12.2-6.2l4.9,4.6c-3.7,4.8-8.8,8.3-17.5,8.3
				C1246.6,307.5,1237,296.5,1237,282.4z"/>
			<path d="M1288,282.4c0-13.9,9.9-25,23.6-25c14.5,0,23,11.3,23,25.6v1.9h-38.6c0.6,9,6.8,16.5,17.1,16.5c5.5,0,11-2.2,14.8-6.1
				l3.6,4.9c-4.9,4.8-11.3,7.4-19,7.4C1298.2,307.5,1288,297.3,1288,282.4z M1311.5,263.5c-10.2,0-15.2,8.6-15.6,15.8h31.4
				C1327.1,272.3,1322.4,263.5,1311.5,263.5z"/>
			<path d="M1373.8,306.3v-6.6c23.8-18.6,36.7-29.6,36.7-41c0-8.5-7-12.1-13.9-12.1c-7.9,0-14.1,3.4-17.9,8.3l-5-5.2
				c5-6.7,13.7-10.4,23-10.4c11,0,22.2,6.2,22.2,19.4c0,13.5-13.7,25.7-32.1,40.3h32.4v7.3H1373.8z"/>
			<path d="M1433.6,273.4c0-16.1,7.1-34.1,25.2-34.1c18,0,25.2,17.9,25.2,34.1c0,16-7.2,34.2-25.2,34.2
				C1440.8,307.5,1433.6,289.4,1433.6,273.4z M1475.7,273.4c0-13.2-4.3-26.7-16.8-26.7c-12.6,0-16.8,13.6-16.8,26.7
				s4.3,26.8,16.8,26.8C1471.5,300.2,1475.7,286.5,1475.7,273.4z"/>
			<path d="M1508.7,306.3v-55.2l-10.6,11.3l-5-5l16.5-17h7.2v66H1508.7z"/>
			<path d="M1531.5,273.4c0-17.8,8.3-34.1,26.9-34.1c8.4,0,14.2,3.2,18.2,7.9l-4.2,6.1c-3.4-4-7.2-6.7-14.1-6.7
				c-12.9,0-18.6,13-18.6,25.9c0,0.9,0,1.7,0,2.6c2.9-4.6,10.2-10.3,18.7-10.3c11.9,0,21.6,7,21.6,21.1c0,11.4-8.7,21.6-23.1,21.6
				C1538.6,307.5,1531.5,291.4,1531.5,273.4z M1571.8,286.2c0-9.7-6.7-14.3-15.1-14.3c-6.6,0-13,4.1-16.5,9.8
				c0.7,8.2,5,18.4,16.5,18.4C1566.9,300.2,1571.8,292.5,1571.8,286.2z"/>
		</g>
	</g>
</g>
</svg>
